# xmcd
#
# Track frame offsets: 
#        150
#        15225
#        33426
#        48444
#        67774
#        85946
#        101387
#        119561
#
# Disc length: 1805 seconds
#
# Revision: 0
# Processed by: cddbd v1.5.2PL0 Copyright (c) Steve Scherf et al.
# Submitted via: ExactAudioCopy v0.99pb3
#
DISCID=57070b08
DTITLE=Dr.Feelgood - Classic
DYEAR=1900
DGENRE=Blues
TTITLE0=Hunting Shooting Fishing
TTITLE1=Brak Thise Chains
TTITLE2=Heartbreak
TTITLE3=(I Wanna) Make Love To You
TTITLE4=Highway 61
TTITLE5=Lights Of Downtown
TTITLE6=Quit While You're Behind
TTITLE7=Nothing Like It
EXTD=
EXTT0=
EXTT1=
EXTT2=
EXTT3=
EXTT4=
EXTT5=
EXTT6=
EXTT7=
PLAYORDER=
